<?xml version="1.0" encoding="utf-8"?>
<!-- Generator: Adobe Illustrator 19.2.1, SVG Export Plug-In . SVG Version: 6.00 Build 0)  -->
<svg version="1.1" id="Layer_1" xmlns="http://www.w3.org/2000/svg" xmlns:xlink="http://www.w3.org/1999/xlink" x="0px" y="0px"
	 viewBox="0 0 100 100" style="enable-background:new 0 0 100 100;" xml:space="preserve">
<polygon style="fill:#FFFFFF;" points="32.1,79 32.1,29.6 31.1,11.1 38.9,2.8 60.9,3.2 68.6,10.6 67.7,29.6 67.7,79 58.2,94.8 
	41,94.5 "/>
<path style="fill:#36374C;" d="M50,0c-0.1,0-5.3-0.1-8.3,1c-2,0.7-6.2,3.1-9.1,7.5c-0.2,0.3-0.4,0.5-0.7,0.7c-0.3,0.3-0.6,0.6-0.8,1
	c-0.3,0.6-0.6,1.8-0.8,2.6c0,0.2-0.1,0.4-0.1,0.5c-0.7,2.7-0.6,8.5-0.6,10.4c0,0.3,0,0.4,0,0.5c0,0.4,0.1,0.8,0.2,1.3
	c0.1,0.7,0.3,1.6,0.4,2.9v12.3c-0.3,0.3-2,1.6-2.7,2.6c-0.4,0.6-0.5,1-0.5,1.3c0,0.3,0.1,0.5,0.2,0.7l0,0c0,0.1,0.1,0.1,0.2,0.1
	l3-0.7c0.1,2,0.8,21.7,0.3,26.6c0,0.7,0,0.9-0.1,1.2c-0.1,0.3-0.2,0.7-0.3,1.7c-0.1,2.2,0,4.4,0.3,6.4c0.2,1.3,0.6,1.8,1,2.2
	c0.2,0.2,0.4,0.4,0.6,0.8c0.2,0.4,0.6,1.6,1.1,2.9c0.7,1.9,1.6,4.3,2.3,5.6c1,2,1.3,2.5,2,2.7c0.1,0.5,0.8,1.9,1.1,2.4
	c0.6,0.7,6.6,2.7,11.4,2.7c0,0,0.1,0,0.1,0c4.8,0,10.8-1.9,11.4-2.7c0.4-0.5,1-1.9,1.1-2.4c0.6-0.2,1-0.7,2-2.7
	c0.6-1.3,1.5-3.7,2.3-5.6c0.5-1.3,0.9-2.4,1.1-2.9c0.2-0.4,0.4-0.6,0.6-0.8c0.4-0.4,0.7-0.8,1-2.2c0.4-2,0.5-4.3,0.3-6.4
	c-0.1-1.1-0.2-1.4-0.3-1.7c-0.1-0.3-0.1-0.5-0.1-1.2c-0.5-4.8,0.2-24.5,0.3-26.6l3,0.7c0.1,0,0.1,0,0.2-0.1l0,0
	c0.2-0.4,0.4-0.9-0.3-2c-0.7-1-2.4-2.4-2.7-2.6V28.5c0-1.3,0.2-2.2,0.4-2.9c0.1-0.5,0.2-0.9,0.2-1.3c0-0.1,0-0.3,0-0.5
	c0-1.9,0.1-7.7-0.6-10.4c0-0.1-0.1-0.3-0.1-0.5c-0.2-0.8-0.5-2.1-0.8-2.6c-0.2-0.4-0.5-0.7-0.8-1c-0.2-0.2-0.5-0.4-0.7-0.7
	c-2.9-4.4-7.1-6.7-9.1-7.5C55.3-0.1,50.1,0,50,0C50,0,50,0,50,0C50,0,50,0,50,0z M63.4,76.5c-0.1-2.6-0.3-17.2,0-21.2
	c0.3-3.9,3.9-16.1,3.9-16.3c0-0.2,0.3,14.9,0,18.8s-2.3,16.3-3,18.2C63.4,78.5,63.4,76.5,63.4,76.5z M40.4,77c0-1.7,0.4-1.9,1.8-1.9
	c1.4,0,5.7,0.3,7.8,0.3c2.1,0,6.4-0.3,7.8-0.3c1.4,0,1.8,0.2,1.8,1.9S58,88.2,58,88.2c-0.4,1.9-1.6,2.8-3.1,3.5
	c-1.4,0.6-5,0.7-5,0.7s-3.5-0.1-4.9-0.7c-1.5-0.7-2.6-1.7-3.1-3.5C42,88.2,40.4,78.6,40.4,77z M32.8,39.1c0,0.2,3.6,12.4,3.9,16.3
	c0.3,3.9,0.1,18.6,0,21.2c0,0,0,2-0.9-0.5c-0.7-1.9-2.6-14.3-3-18.2C32.4,54,32.8,38.8,32.8,39.1z M50.3,30.2L50.3,30.2
	c16.3,0.1,16.8,5.2,16.8,5.2c-0.5,1.7-3.8,13.3-3.8,13.3s-0.3,1.5-1.7,0.9c-1.7-0.7-9-1.6-11.3-1.6c-2.4,0-9.9,1-11.6,1.6
	c-1.4,0.6-1.7-0.9-1.7-0.9S33.4,37.1,33,35.4c0,0,0.7-5.1,17-5.2l0,0C50.1,30.2,50.2,30.2,50.3,30.2z M58.3,16.5
	c-0.4-0.1-0.9-2.1-1.1-2.7c-0.2-0.6-0.8-2.8-0.4-2.8c0.5-0.1,1.2,1,1.8,2.6c0.6,1.6,0.7,2.7,0.7,2.9C59.3,16.7,58.8,16.6,58.3,16.5z
	 M43.2,11c0.4,0-0.3,2.2-0.4,2.8c-0.2,0.6-0.7,2.6-1.1,2.7c-0.5,0.1-0.9,0.2-1,0c-0.1-0.2,0-1.3,0.7-2.9C42,12,42.6,10.9,43.2,11z
	 M40.8,5.1c-0.4,1-1.5,2.2-2,2.6c-1.1,0.9-5,2.4-6.7,3.9c-0.5,0.5-0.1-0.4,0.1-0.6c1.2-1.7,4.6-5.7,7.1-6.9
	C40.9,3.2,41.2,4.1,40.8,5.1z M60.7,4c2.5,1.2,5.9,5.2,7.1,6.9c0.1,0.2,0.6,1.1,0.1,0.6c-1.7-1.5-5.5-3-6.7-3.9
	c-0.5-0.4-1.6-1.5-2-2.6C58.8,4.1,59.1,3.2,60.7,4z"/>
</svg>
