<?xml version="1.0" encoding="utf-8"?>
<!-- Generator: Adobe Illustrator 19.2.1, SVG Export Plug-In . SVG Version: 6.00 Build 0)  -->
<svg version="1.1" id="Layer_1" xmlns="http://www.w3.org/2000/svg" xmlns:xlink="http://www.w3.org/1999/xlink" x="0px" y="0px"
	 viewBox="0 0 100 100" style="enable-background:new 0 0 100 100;" xml:space="preserve">
<path style="fill:#00A3AF;" d="M97.9,87.6c-1.7-2-3-3.6-4-6.5c-2.1-7.8,0.4-16.7,0.4-16.7l0,0c1.6-4.8,2.5-10,2.5-15.3
	c0-26.7-21.7-48.4-48.4-48.4C21.7,0.7,0,22.2,0,48.9C0,69.6,13,87,31.2,94h0c0,0,0.1,0.2,0.3,0.3c2.4,0.9,4.9,1.7,7.4,2.2
	c9.9,2.2,28.9,4.8,55.5,0.4C101,95.7,101.1,91.4,97.9,87.6z M50,70.2c-2.3,0-4.1-1.8-4.1-4.1S47.7,62,50,62c2.3,0,4.1,1.8,4.1,4.1
	C54.1,68.3,52.3,70.2,50,70.2z M56.6,51.8c-1.1,0.7-2.6,1.3-3.6,1.6v2.7c0,1.8-1.2,3.2-3,3.2c-1.8,0-3-1.4-3-3.2v-5.4
	c0-1.8,1.3-3.2,3.1-3.2c1.1,0,2.2-0.3,3.1-1c1.5-1,2.4-2.8,2.4-4.6c0-3.1-2.5-5.6-5.6-5.6s-5.6,2.5-5.6,5.6c0,1.8-1.4,3.2-3.2,3.2
	c-1.8,0-3.2-1.4-3.2-3.2c0-6.6,5.4-12,12-12c6.6,0,11.9,5.4,11.9,12C61.9,45.8,59.9,49.6,56.6,51.8z"/>
</svg>
