<?xml version="1.0" encoding="utf-8"?>
<!-- Generator: Adobe Illustrator 19.2.1, SVG Export Plug-In . SVG Version: 6.00 Build 0)  -->
<svg version="1.1" id="Layer_1" xmlns="http://www.w3.org/2000/svg" xmlns:xlink="http://www.w3.org/1999/xlink" x="0px" y="0px"
	 viewBox="0 0 100 100" style="enable-background:new 0 0 100 100;" xml:space="preserve">
<path id="Forma_1" style="fill:#FFFFFF;" d="M85.8,40.4h-2.1v-9.1C83.1,13.7,68.6-0.2,51,0c-0.5,0-1.5,0-2,0
	C31.4-0.2,16.9,13.7,16.3,31.3v9.1h-2.1c-3.5,0.3-6.2,3.4-5.9,6.9V93c-0.3,3.5,2.4,6.6,5.9,7h71.5c3.5-0.3,6.2-3.4,5.9-7V47.3
	C91.9,43.8,89.3,40.7,85.8,40.4z M56.7,70.1v13.8c-0.1,1.6-1.4,2.9-3.1,2.9h-7.2c-1.6,0-3-1.3-3.1-2.9V70.1
	c-1.7-1.5-2.7-3.7-2.7-5.9c0.1-4.6,3.8-8.2,8.3-8.3c0.5,0,1.5,0,2,0c4.6,0.1,8.2,3.8,8.3,8.3C59.3,66.5,58.4,68.6,56.7,70.1z
	 M69.8,40.4H30.3v-9.1C31,20.4,40.5,12.1,51.4,12.9c9.8,0.7,17.6,8.5,18.3,18.3V40.4z"/>
</svg>
