<?xml version="1.0" encoding="utf-8"?>
<!-- Generator: Adobe Illustrator 19.2.1, SVG Export Plug-In . SVG Version: 6.00 Build 0)  -->
<svg version="1.1" id="Layer_1" xmlns="http://www.w3.org/2000/svg" xmlns:xlink="http://www.w3.org/1999/xlink" x="0px" y="0px"
	 viewBox="0 0 100 100" style="enable-background:new 0 0 100 100;" xml:space="preserve">
<path style="fill:#FFFFFF;" d="M71.8,93.9L50,100l-21.9-6.1L6.1,100l12.2-39l7.3-1.7L50,91.5l24.4-32.2l7.3,1.7l12.2,39L71.8,93.9z
	 M76.8,48.7L50,85.3L23.2,48.7h0.1c-3.2-4.9-5-10.7-5-17.1C18.3,14.1,32.5,0,50,0s31.7,14.1,31.7,31.7c0,6.3-1.8,12.2-5,17.1H76.8z
	 M50,22c-6.7,0-12.2,5.5-12.2,12.2S43.3,46.4,50,46.4s12.2-5.5,12.2-12.2S56.7,22,50,22z"/>
</svg>
