<?xml version="1.0" encoding="utf-8"?>
<!-- Generator: Adobe Illustrator 19.2.1, SVG Export Plug-In . SVG Version: 6.00 Build 0)  -->
<svg version="1.1" id="Layer_1" xmlns="http://www.w3.org/2000/svg" xmlns:xlink="http://www.w3.org/1999/xlink" x="0px" y="0px"
	 viewBox="0 0 512 512" style="enable-background:new 0 0 512 512;" xml:space="preserve">
<path style="fill:#FFFFFF;" d="M256,0C168,0,96.4,71.6,96.4,159.6v192.8C96.4,440.4,168,512,256,512s159.6-71.6,159.6-159.6V159.6
	C415.6,71.6,344,0,256,0z M396.5,159.6v2.5c-41.2,21.7-87.3,33.5-134.1,34.5v-53.4c13.5-2.9,23.6-15,23.6-29.3v-40
	c0-14.4-10.1-26.4-23.6-29.3V19.3C336.9,22.6,396.5,84.3,396.5,159.6z M256,56.7c9.5,0,17.3,7.7,17.3,17.3v40
	c0,9.5-7.7,17.3-17.3,17.3c-9.5,0-17.3-7.7-17.3-17.3v-40C238.7,64.4,246.5,56.7,256,56.7z M249.6,19.3v25.3
	c-13.5,2.9-23.6,15-23.6,29.3v40c0,14.4,10.1,26.4,23.6,29.3v53.4c-46.8-1-92.9-12.9-134.1-34.5v-2.5
	C115.5,84.3,175.1,22.6,249.6,19.3z M256,492.9c-77.5,0-140.5-63-140.5-140.5V176.5c43.4,21.6,91.6,33,140.5,33
	c48.8,0,97.1-11.4,140.5-33v175.9C396.5,429.8,333.5,492.9,256,492.9z"/>
</svg>
