<?xml version="1.0" encoding="utf-8"?>
<!-- Generator: Adobe Illustrator 19.2.1, SVG Export Plug-In . SVG Version: 6.00 Build 0)  -->
<svg version="1.1" id="Layer_1" xmlns="http://www.w3.org/2000/svg" xmlns:xlink="http://www.w3.org/1999/xlink" x="0px" y="0px"
	 viewBox="0 0 100 100" style="enable-background:new 0 0 100 100;" xml:space="preserve">
<g>
	<path style="fill:#00A3AF;" d="M99.7,48.5L89.4,16.1c-0.4-1.4-1.4-2.5-2.7-3.1c-1.3-0.7-2.7-0.8-4.1-0.3L29.8,29.5
		c-2.8,0.9-4.4,3.9-3.5,6.8l2.1,6.6H5.4c-3,0-5.4,2.4-5.4,5.4v34c0,3,2.4,5.4,5.4,5.4h59.1c3,0,5.4-2.4,5.4-5.4V63.7l26.4-8.5
		C99.1,54.3,100.6,51.3,99.7,48.5L99.7,48.5z M64.5,82.7H5.4c-0.3,0-0.5-0.2-0.5-0.5v-34c0-0.3,0.2-0.5,0.5-0.5h59.1
		c0.3,0,0.5,0.2,0.5,0.5v34C65,82.5,64.8,82.7,64.5,82.7z M84.5,17.3c0.1,0,0.2,0.1,0.2,0.3l2.1,6.5L33.1,41.3L31,34.8
		c-0.1-0.2,0.1-0.5,0.3-0.6l52.8-16.9c0.1,0,0.1,0,0.1,0C84.3,17.3,84.4,17.3,84.5,17.3z M64.5,42.9H44l44.2-14.2L95.1,50
		c0.1,0.2-0.1,0.5-0.3,0.6l-24.9,8V48.3C69.9,45.3,67.5,42.9,64.5,42.9L64.5,42.9z"/>
	<path style="fill:#00A3AF;" d="M23.1,55.1H12.6c-1.4,0-2.5,1.1-2.5,2.5s1.1,2.5,2.5,2.5h10.5c1.4,0,2.5-1.1,2.5-2.5
		S24.5,55.1,23.1,55.1z"/>
	<path style="fill:#00A3AF;" d="M34.8,60c1.4,0,2.5-1.1,2.5-2.5s-1.1-2.5-2.5-2.5H31c-1.4,0-2.5,1.1-2.5,2.5S29.7,60,31,60H34.8z"/>
	<path style="fill:#00A3AF;" d="M61,65.7c0-1.4-1.1-2.5-2.5-2.5h-12c-1.4,0-2.5,1.1-2.5,2.5v10.6c0,1.4,1.1,2.5,2.5,2.5h12
		c1.4,0,2.5-1.1,2.5-2.5V65.7z M56.1,68.1v5.7H49v-5.7H56.1z"/>
</g>
</svg>
