<?xml version="1.0" encoding="utf-8"?>
<!-- Generator: Adobe Illustrator 19.2.1, SVG Export Plug-In . SVG Version: 6.00 Build 0)  -->
<svg version="1.1" id="Layer_1" xmlns="http://www.w3.org/2000/svg" xmlns:xlink="http://www.w3.org/1999/xlink" x="0px" y="0px"
	 viewBox="0 0 100 100" style="enable-background:new 0 0 100 100;" xml:space="preserve">
<path style="fill:#00A3AF;" d="M50,58.1c11.1,0,20.1-9,20.1-20.1s-9-20.1-20.1-20.1s-20.1,9-20.1,20.1S38.9,58.1,50,58.1z
	 M36.7,32.3l8.5-0.6l3.2-7.9c0.6-1.4,2.7-1.4,3.3,0l3.2,7.9l8.5,0.6c1.6,0.1,2.2,2.1,1,3.2L57.9,41l2,8.3c0.4,1.5-1.3,2.8-2.7,1.9
	L50,46.6l-7.3,4.5c-1.3,0.8-3.1-0.4-2.7-1.9l2-8.3l-6.4-5.4C34.5,34.5,35.1,32.5,36.7,32.3z M30,64.6l2.6,6.4
	c0.4,0.9,1.4,1.4,2.5,1.1l6.6-2c0.7-0.2,1.4,0,1.9,0.4l5.1,4.7c0.7,0.7,1.9,0.7,2.7,0l5.1-4.7c0.5-0.5,1.2-0.6,1.9-0.4l6.6,2
	c1,0.3,2-0.2,2.5-1.1l2.6-6.4c0.3-0.6,0.8-1.1,1.5-1.2l6.8-1.1c1-0.2,1.7-1,1.6-2l-0.4-6.9c0-0.7,0.3-1.3,0.8-1.7l5.7-4
	c0.8-0.6,1.1-1.7,0.6-2.7l-3.5-6c-0.3-0.6-0.3-1.3,0-1.9l3.5-6c0.5-0.9,0.2-2-0.6-2.7l-5.7-4c-0.6-0.4-0.9-1-0.8-1.7l0.5-6.9
	c0.1-1-0.6-1.9-1.6-2l-6.8-1.1c-0.7-0.1-1.2-0.6-1.5-1.2l-2.6-6.4c-0.4-0.9-1.4-1.4-2.5-1.1l-6.6,2c-0.7,0.2-1.4,0-1.9-0.4l-5.1-4.7
	c-0.7-0.7-1.9-0.7-2.7,0l-5.1,4.7c-0.5,0.5-1.2,0.6-1.9,0.4l-6.6-2c-1-0.3-2,0.2-2.5,1.1l-2.6,6.4c-0.3,0.6-0.8,1.1-1.5,1.2
	l-6.8,1.1c-1,0.2-1.7,1-1.6,2l0.5,6.9c0,0.7-0.3,1.3-0.8,1.7l-5.7,4c-0.8,0.6-1.1,1.7-0.6,2.7l3.5,6c0.3,0.6,0.3,1.3,0,1.9L13.2,45
	c-0.5,0.9-0.2,2,0.6,2.7l5.7,4c0.6,0.4,0.9,1,0.8,1.7L20,60.2c-0.1,1,0.6,1.9,1.6,2l6.8,1.1C29.2,63.5,29.7,64,30,64.6z M50,13.3
	c13.6,0,24.6,11,24.6,24.6S63.6,62.6,50,62.6s-24.6-11-24.6-24.6S36.4,13.3,50,13.3z M66.9,93.5l-4.8,6.1c-0.4,0.6-1.4,0.4-1.6-0.3
	L53.9,79c0.1-0.1,0.3-0.2,0.4-0.3l4.1-3.7l5.3,1.6c0.6,0.2,1.2,0.3,1.8,0.3c1.7,0,3.5-0.7,4.6-1.9l6.2,19.3c0.2,0.7-0.4,1.4-1.1,1.1
	l-7.5-2.1C67.5,93.1,67.2,93.2,66.9,93.5z M32.1,93.2l-7.5,2.1c-0.7,0.2-1.3-0.5-1.1-1.1l6.2-19.3c1.2,1.2,2.9,1.9,4.6,1.9
	c0.6,0,1.2-0.1,1.8-0.3l5.3-1.6l4.1,3.7c0.1,0.1,0.3,0.2,0.4,0.3l-6.5,20.3c-0.2,0.7-1.1,0.9-1.6,0.3L33,93.4
	C32.8,93.2,32.5,93.1,32.1,93.2z"/>
</svg>
