<?xml version="1.0" encoding="utf-8"?>
<!-- Generator: Adobe Illustrator 19.2.1, SVG Export Plug-In . SVG Version: 6.00 Build 0)  -->
<svg version="1.1" id="Layer_1" xmlns="http://www.w3.org/2000/svg" xmlns:xlink="http://www.w3.org/1999/xlink" x="0px" y="0px"
	 viewBox="0 0 100 100" style="enable-background:new 0 0 100 100;" xml:space="preserve">
<path style="fill:#00A3AF;stroke:#00A3AF;stroke-miterlimit:10;" d="M78.3,46.4c0.2-3,0.6-8.4,0.6-8.4l1.1-22.8
	c0-0.9-0.7-1.7-1.6-1.8c-1.9-0.1-5,0.3-7.3,2.2L69.5,1.4c0-0.4-0.2-0.9-0.7-1.1c-0.3-0.2-0.8-0.3-1.2-0.3c-3.2,0.3-9.3,3-8.9,10.1
	c0,0.2,0,0.6,0,1L52.4,0.8c-0.2-0.4-0.7-0.7-1.2-0.8c-0.4-0.1-0.9,0.1-1.2,0.4c-0.3,0.2-6.9,6.4-4.4,13c0.9,2.4,4.2,8.8,4.4,9.1
	c0,0,0,0.1,0.1,0.1l4.6,7.3c-4.3-0.8-16.2,0.1-18.7,2.1c-2.1,1.8-8.1,8.4-8.3,8.8c-0.1,0.1-0.2,0.3-0.3,0.4
	c-0.4-0.2-0.9-0.4-1.3-0.7c-0.6-0.2-1.1-0.2-1.7,0c-0.8,0.3-1.9,0.9-4.3,15.9c0,0.1,0,0.2,0,0.3c0,0.3,0.2,7.4,9,16.3
	c7.7,7.8,14.6,20.6,17.1,25.8c0.3,0.6,0.9,0.9,1.4,0.9c0.2,0,0.6-0.1,0.8-0.2c0.8-0.4,1.1-1.4,0.8-2.2c-3.3-6.6-10-18.8-17.8-26.6
	c-7.1-7.2-8-13.1-8.1-14c0.8-4.8,1.9-10.2,2.6-12.7c4.6,2.4,4.4,4.3,4.2,7.1c-0.1,2.6-0.3,5.8,3.1,9.4c5.4,5.7,10.6,8.4,10.7,8.6
	c0.4,0.2,1,0.2,1.6,0l11.7-5.6c0.4-0.2,0.8-0.6,0.9-1l2.2-7.9c0.1-0.3,0.1-0.8-0.1-1.1l-4.8-10.3c-0.1-0.2-0.2-0.3-0.3-0.4
	c-2.9-2.8-10.1-6.3-17.6-0.1c-1,0.8-1.9,1.1-2.9,1c-1.3-0.2-2.6-1.1-3.4-2c2.1-2.3,5.7-6.2,7-7.3c1.1-0.9,12.7-2.2,16-1.4
	c1,0.9,3.9,3.9,6.9,7l0.1,0.1c1.9,2,3.8,4,5.3,5.8c0.7,0.7,1.7,0.7,2.3,0.1c0.7-0.7,0.7-1.7,0.1-2.3c-0.6-0.6-2.8-3-5.3-5.8
	L52.7,20.8c-0.3-0.6-3.4-6.6-4.2-8.7c-1.1-2.9,0.8-6.1,2.2-7.9l10.8,17.4c0,0,0,0.1,0.1,0.1c2.9,4,6.1,8.6,6.4,9.3
	c0.2,0.4,0.9,2,1.8,3.9c0,0,0,0,0,0.1c0,0,0,0.1,0.1,0.1c1.6,3.2,3.8,8.1,4.2,9.2c0.8,2.1,2.2,7.6,2.4,11.3c0,1-0.6,4.7-1.1,8.4
	c-1.7,11.1-4.3,28-1.6,34.6c0.2,0.7,0.9,1,1.6,1c0.2,0,0.4,0,0.7-0.1c0.9-0.3,1.2-1.3,0.9-2.2c-2.4-5.7,0.2-22.7,1.8-32.8
	c0.8-5.1,1.2-7.9,1.1-9.1C79.8,52.7,78.9,49.1,78.3,46.4z M34,47.3c2,0.2,3.8-0.3,5.6-1.8c6.2-5.2,11.8-1.1,12.9-0.2l4.4,9.4
	L55,61.3l-10.2,4.9c-1.6-0.9-5.2-3.4-9.2-7.6c-2.4-2.6-2.3-4.6-2.1-6.9c0.1-1.7,0.1-3.1-0.3-4.6C33.4,47.2,33.7,47.3,34,47.3z
	 M64.3,20.1l-2-3.2c-0.1-2.2-0.2-5.3-0.3-6.9c-0.2-4,2.4-5.7,4.3-6.2l1.9,16.8c0,0.1,0,0.1,0,0.2l0.4,3.9c0,0,0.1,0.9,0.2,2.1
	C67.3,24.2,65.3,21.4,64.3,20.1z M73,34.1c-0.2-2-0.9-9.6-1-9.9l-0.4-3.7c0.9-2.7,3.3-3.4,4.9-3.7l-1,20.9c0,0,0,0.6-0.1,1.4
	C74.7,37.6,73.8,35.8,73,34.1z"/>
</svg>
