<?xml version="1.0" encoding="utf-8"?>
<!-- Generator: Adobe Illustrator 19.2.1, SVG Export Plug-In . SVG Version: 6.00 Build 0)  -->
<svg version="1.1" id="Layer_1" xmlns="http://www.w3.org/2000/svg" xmlns:xlink="http://www.w3.org/1999/xlink" x="0px" y="0px"
	 viewBox="0 0 100 100" style="enable-background:new 0 0 100 100;" xml:space="preserve">
<g>
	<g>
		<path style="fill:#00A3AF;" d="M50,73.9c-13.2,0-23.9-10.7-23.9-23.9S36.8,26.1,50,26.1S73.9,36.8,73.9,50S63.2,73.9,50,73.9z
			 M50,30.4c-10.8,0-19.6,8.8-19.6,19.6S39.2,69.6,50,69.6S69.6,60.8,69.6,50S60.8,30.4,50,30.4z"/>
	</g>
	<g>
		<g>
			<path style="fill:#00A3AF;" d="M50,56.5c-6,0-10.9-4.9-10.9-10.9S44,34.8,50,34.8s10.9,4.9,10.9,10.9S56,56.5,50,56.5z M50,39.1
				c-3.6,0-6.5,2.9-6.5,6.5c0,3.6,2.9,6.5,6.5,6.5s6.5-2.9,6.5-6.5C56.5,42.1,53.6,39.1,50,39.1z"/>
		</g>
		<g>
			<path style="fill:#00A3AF;" d="M50,73.9c-6.4,0-12.4-2.5-16.9-7c-0.6-0.6-0.8-1.5-0.5-2.2c2.6-7.5,9.6-12.5,17.4-12.5
				s14.8,5,17.4,12.5c0.3,0.8,0.1,1.7-0.5,2.2C62.4,71.4,56.4,73.9,50,73.9z M37.2,64.8c7.1,6.2,18.5,6.2,25.6,0
				c-2.3-5-7.3-8.3-12.8-8.3S39.5,59.8,37.2,64.8z"/>
		</g>
	</g>
	<g>
		<path style="fill:#00A3AF;" d="M89.1,100H10.9C4.9,100,0,95.1,0,89.1V10.9C0,4.9,4.9,0,10.9,0h78.3c6,0,10.9,4.9,10.9,10.9v78.3
			C100,95.1,95.1,100,89.1,100z M10.9,4.3c-3.6,0-6.5,2.9-6.5,6.5v78.3c0,3.6,2.9,6.5,6.5,6.5h78.3c3.6,0,6.5-2.9,6.5-6.5V10.9
			c0-3.6-2.9-6.5-6.5-6.5H10.9z"/>
	</g>
	<g>
		<path style="fill:#00A3AF;" d="M97.8,21.7H2.2c-1.2,0-2.2-1-2.2-2.2c0-1.2,1-2.2,2.2-2.2h95.7c1.2,0,2.2,1,2.2,2.2
			C100,20.8,99,21.7,97.8,21.7z"/>
	</g>
	<g>
		<path style="fill:#00A3AF;" d="M45.7,91.3H23.9c-1.2,0-2.2-1-2.2-2.2v-8.7c0-1.2,1-2.2,2.2-2.2h21.7c1.2,0,2.2,1,2.2,2.2v8.7
			C47.8,90.3,46.9,91.3,45.7,91.3z M26.1,87h17.4v-4.3H26.1V87z"/>
	</g>
	<g>
		<path style="fill:#00A3AF;" d="M76.1,91.3H54.3c-1.2,0-2.2-1-2.2-2.2v-8.7c0-1.2,1-2.2,2.2-2.2h21.7c1.2,0,2.2,1,2.2,2.2v8.7
			C78.3,90.3,77.3,91.3,76.1,91.3z M56.5,87h17.4v-4.3H56.5V87z"/>
	</g>
	<g>
		<circle style="fill:#00A3AF;" cx="10.9" cy="10.9" r="2.2"/>
	</g>
	<g>
		<circle style="fill:#00A3AF;" cx="19.6" cy="10.9" r="2.2"/>
	</g>
	<g>
		<circle style="fill:#00A3AF;" cx="28.3" cy="10.9" r="2.2"/>
	</g>
</g>
</svg>
