<?xml version="1.0" encoding="utf-8"?>
<!-- Generator: Adobe Illustrator 19.2.1, SVG Export Plug-In . SVG Version: 6.00 Build 0)  -->
<svg version="1.1" id="Capa_1" xmlns="http://www.w3.org/2000/svg" xmlns:xlink="http://www.w3.org/1999/xlink" x="0px" y="0px"
	 viewBox="0 0 512 512" style="enable-background:new 0 0 512 512;" xml:space="preserve">
<g>
	<path style="fill:#C9C9C9;" d="M471.6,337.1c-31.6,0-62.5-4.9-91.8-14.6c-14-4.9-31.3-0.5-40,8.5l-58.1,43.9
		c-66.7-35.6-109.4-78.3-144.5-144.5l42.7-56.8c10.8-10.8,14.6-26.5,10-41.2c-9.8-29.5-14.7-60.5-14.7-92C175.2,18.1,157,0,134.7,0
		H40.4C18.1,0,0,18.1,0,40.4C0,300.4,211.6,512,471.6,512c22.3,0,40.4-18.1,40.4-40.4v-94C512,355.2,493.9,337.1,471.6,337.1z"/>
	<path style="fill:#C9C9C9;" d="M309.9,26.9c96.6,0,175.2,78.6,175.2,175.2c0,7.4,6,13.5,13.5,13.5c7.4,0,13.5-6,13.5-13.5
		C512,90.7,421.3,0,309.9,0c-7.4,0-13.5,6-13.5,13.5S302.5,26.9,309.9,26.9z"/>
	<path style="fill:#C9C9C9;" d="M309.9,134.7c37.2,0,67.4,30.2,67.4,67.4c0,7.4,6,13.5,13.5,13.5s13.5-6,13.5-13.5
		c0-52-42.3-94.3-94.3-94.3c-7.4,0-13.5,6-13.5,13.5S302.5,134.7,309.9,134.7z"/>
</g>
</svg>
