<?xml version="1.0" encoding="utf-8"?>
<!-- Generator: Adobe Illustrator 19.2.1, SVG Export Plug-In . SVG Version: 6.00 Build 0)  -->
<svg version="1.1" id="Layer_1" xmlns="http://www.w3.org/2000/svg" xmlns:xlink="http://www.w3.org/1999/xlink" x="0px" y="0px"
	 viewBox="0 0 100 100" style="enable-background:new 0 0 100 100;" xml:space="preserve">
<g>
	<g>
		<path style="fill:#FFFFFF;" d="M94.4,7.6C93.7,7,92.7,7,92,7.6c-0.7,0.7-0.7,1.7,0,2.4
			c6.2,6.2,6.2,16.4,0,22.6c-0.7,0.7-0.7,1.7,0,2.4c0.3,0.3,0.8,0.5,1.2,0.5c0.4,0,0.9-0.2,1.2-0.5C101.9,27.4,101.9,15.1,94.4,7.6"
			/>
		<path style="fill:#FFFFFF;" d="M87.3,11.4c-0.7-0.7-1.7-0.7-2.4,0c-0.7,0.7-0.7,1.7,0,2.4
			c2.1,2.1,3.2,4.8,3.2,7.7c0,2.9-1.1,5.7-3.2,7.7c-0.7,0.7-0.7,1.7,0,2.4c0.3,0.3,0.8,0.5,1.2,0.5c0.4,0,0.9-0.2,1.2-0.5
			c2.7-2.7,4.2-6.3,4.2-10.1S90,14.1,87.3,11.4"/>
		<path style="fill:#FFFFFF;" d="M8,10c0.7-0.7,0.7-1.7,0-2.4C7.4,7,6.3,7,5.6,7.6
			c-7.5,7.5-7.5,19.8,0,27.3c0.3,0.3,0.8,0.5,1.2,0.5s0.9-0.2,1.2-0.5c0.7-0.7,0.7-1.7,0-2.4C1.8,26.3,1.8,16.2,8,10"/>
		<path style="fill:#FFFFFF;" d="M15,10.9c-0.7-0.7-1.7-0.7-2.4,0C10,13.6,8.5,17.2,8.5,21
			s1.5,7.4,4.2,10.1c0.3,0.3,0.8,0.5,1.2,0.5c0.4,0,0.9-0.2,1.2-0.5c0.7-0.7,0.7-1.7,0-2.4C13,26.7,11.8,24,11.8,21s1.1-5.7,3.2-7.7
			C15.7,12.7,15.7,11.6,15,10.9"/>
		<path style="fill:#FFFFFF;" d="M50,85c-1.8,0-3.3,1.5-3.3,3.3c0,1.8,1.5,3.3,3.3,3.3s3.3-1.5,3.3-3.3
			C53.3,86.5,51.8,85,50,85"/>
		<path style="fill:#FFFFFF;" d="M71,0H29c-4,0-7.3,3.3-7.3,7.3v85.3c0,4,3.3,7.3,7.3,7.3h42
			c4,0,7.3-3.3,7.3-7.3V7.3C78.3,3.3,75,0,71,0L71,0z M55,5h1.7c0.9,0,1.7,0.7,1.7,1.7s-0.7,1.7-1.7,1.7H55c-0.9,0-1.7-0.7-1.7-1.7
			S54.1,5,55,5L55,5z M43.3,5H50c0.9,0,1.7,0.7,1.7,1.7S50.9,8.3,50,8.3h-6.7c-0.9,0-1.7-0.7-1.7-1.7S42.4,5,43.3,5L43.3,5z M50,95
			c-3.7,0-6.7-3-6.7-6.7s3-6.7,6.7-6.7c3.7,0,6.7,3,6.7,6.7S53.7,95,50,95L50,95z M25,13.3h50v63.3H25V13.3z"/>
	</g>
</g>
</svg>
