<?xml version="1.0" encoding="utf-8"?>
<!-- Generator: Adobe Illustrator 19.2.1, SVG Export Plug-In . SVG Version: 6.00 Build 0)  -->
<svg version="1.1" id="Layer_1" xmlns="http://www.w3.org/2000/svg" xmlns:xlink="http://www.w3.org/1999/xlink" x="0px" y="0px"
	 viewBox="0 0 100 100" style="enable-background:new 0 0 100 100;" xml:space="preserve">
<g>
	<path style="fill:#C9C9C9;" d="M50,0C22.4,0,0,22.4,0,50c0,27.6,22.4,50,50,50s50-22.4,50-50C100,22.4,77.6,0,50,0z M53.3,88.8
		v-4.7c0-1.8-1.5-3.3-3.3-3.3s-3.3,1.5-3.3,3.3v4.7C27.9,87,13,72.1,11.3,53.3h5c1.8,0,3.3-1.5,3.3-3.3s-1.5-3.3-3.3-3.3h-5
		C12.6,27.4,27.9,12,47.1,10.4v5.3c0,1.8,1.5,3.3,3.3,3.3c1.8,0,3.3-1.5,3.3-3.3v-5.3C72.8,12,88,27.2,89.6,46.3h-4.8
		c-1.8,0-3.3,1.5-3.3,3.3c0,1.8,1.5,3.3,3.3,3.3h4.8C88,72.1,72.6,87.4,53.3,88.8z"/>
	<path style="fill:#C9C9C9;" d="M69.1,29.9L55.4,47.5c0.8,1.1,1.3,2.4,1.3,3.9c0,3.5-2.9,6.4-6.4,6.4c-3.6,0-6.4-2.9-6.4-6.4
		c0-0.3,0-0.6,0.1-1l-13-8.2c-1.2-0.7-1.5-2.3-0.8-3.4c0.7-1.2,2.3-1.5,3.4-0.8l12.9,8.1c1.1-0.8,2.4-1.3,3.8-1.3
		c0.9,0,1.8,0.2,2.5,0.5l13.7-17.6c0.6-0.7,1.6-0.8,2.3-0.3C69.5,28.2,69.6,29.2,69.1,29.9z"/>
</g>
</svg>
