<?xml version="1.0" encoding="utf-8"?>
<!-- Generator: Adobe Illustrator 19.2.1, SVG Export Plug-In . SVG Version: 6.00 Build 0)  -->
<svg version="1.1" id="Layer_1" xmlns="http://www.w3.org/2000/svg" xmlns:xlink="http://www.w3.org/1999/xlink" x="0px" y="0px"
	 viewBox="0 0 100 100" style="enable-background:new 0 0 100 100;" xml:space="preserve">
<path style="fill:#00A3AF;" d="M50,0C27.2,0,8.7,18.5,8.7,41.3C8.7,72.7,50,100,50,100s0-24.6,0-56C50,21.2,50,0,50,0z M50,62.1
	c-11.5,0-20.8-9.3-20.8-20.8c0-11.5,9.3-20.8,20.8-20.8c0,0,0,9.3,0,20.8C50,52.8,50,62.1,50,62.1z"/>
<path style="fill:#00727A;" d="M50,0c0,0,0,17.6,0,40.4c0,31.4,0,59.6,0,59.6s41.3-27.3,41.3-58.7C91.3,18.5,72.8,0,50,0z M50,62.1
	c0,0,0-9.3,0-20.8c0-11.5,0-20.8,0-20.8c11.5,0,20.8,9.3,20.8,20.8C70.8,52.8,61.5,62.1,50,62.1z"/>
</svg>
