<?xml version="1.0" encoding="utf-8"?>
<!-- Generator: Adobe Illustrator 19.2.1, SVG Export Plug-In . SVG Version: 6.00 Build 0)  -->
<svg version="1.1" id="Layer_1" xmlns="http://www.w3.org/2000/svg" xmlns:xlink="http://www.w3.org/1999/xlink" x="0px" y="0px"
	 viewBox="0 0 100 100" style="enable-background:new 0 0 100 100;" xml:space="preserve">
<g>
	<g>
		<path style="fill:#9E1C20;" d="M44.8,73.3c-1.2,0-2.4-0.5-3.3-1.4L14.9,45.4c-1.8-1.8-1.8-4.8,0-6.7c1.8-1.8,4.8-1.8,6.7,0
			l23.2,23.2l37.1-37.1V12.6c0-2-1.6-3.5-3.5-3.5H3.5c-2,0-3.5,1.6-3.5,3.5v74.8c0,2,1.6,3.5,3.5,3.5h74.8c2,0,3.5-1.6,3.5-3.5V38.1
			L48.1,71.9C47.2,72.8,46,73.3,44.8,73.3z"/>
		<path style="fill:#9E1C20;" d="M98.6,14.7c-1.8-1.8-4.8-1.8-6.7,0L81.9,24.8v13.3l16.7-16.7C100.5,19.5,100.5,16.5,98.6,14.7z"/>
	</g>
</g>
</svg>
