<svg id="Layer_1" data-name="Layer 1" xmlns="http://www.w3.org/2000/svg" viewBox="0 0 339.2 339.2"><defs><style>.cls-1{fill:#fff}</style></defs><title>loader__cogwheel--front</title><path d="M337.59 116.67a21.59 21.59 0 0 1-8.75 26.6 1114.8 1114.8 0 0 1-16.42 9.67 143.37 143.37 0 0 1 0 33.32c5.53 3.19 11.05 6.44 16.43 9.67a21.59 21.59 0 0 1 8.75 26.6l-11.77 28.42a21.58 21.58 0 0 1-25 12.63c-6.07-1.51-12.28-3.12-18.46-4.77a143 143 0 0 1-23.55 23.56c1.67 6.22 3.27 12.42 4.77 18.45a21.59 21.59 0 0 1-12.62 25l-28.42 11.77a21.6 21.6 0 0 1-26.61-8.74c-3.24-5.4-6.49-10.92-9.67-16.43a143.29 143.29 0 0 1-33.31 0c-3.22 5.58-6.47 11.1-9.68 16.43a21.57 21.57 0 0 1-18.48 10.35 21.15 21.15 0 0 1-8.14-1.62l-28.41-11.77a21.57 21.57 0 0 1-12.63-25c1.51-6.07 3.11-12.27 4.77-18.46a143.41 143.41 0 0 1-23.56-23.55c-6.18 1.66-12.39 3.26-18.45 4.77a21.56 21.56 0 0 1-25-12.63L1.61 222.53a21.6 21.6 0 0 1 8.74-26.6c5.37-3.22 10.9-6.48 16.43-9.67a143.37 143.37 0 0 1 0-33.32c-5.53-3.19-11.06-6.44-16.43-9.67a21.58 21.58 0 0 1-8.74-26.6l11.77-28.42a21.59 21.59 0 0 1 25-12.63c6.06 1.51 12.26 3.11 18.46 4.78a142.7 142.7 0 0 1 23.55-23.57c-1.65-6.16-3.26-12.37-4.77-18.45a21.57 21.57 0 0 1 12.63-25l28.41-11.76a21.59 21.59 0 0 1 26.61 8.74c3.22 5.35 6.47 10.87 9.67 16.42a143.37 143.37 0 0 1 33.32 0c3.19-5.53 6.44-11.06 9.67-16.43a21.58 21.58 0 0 1 26.6-8.74L251 13.39a21.57 21.57 0 0 1 12.63 25c-1.51 6.07-3.12 12.28-4.78 18.46a143.47 143.47 0 0 1 23.57 23.55c6.18-1.65 12.38-3.26 18.45-4.77a21.56 21.56 0 0 1 25 12.63l11.77 28.42zm-21.66 7.61l-10.82-26.12c-5.83 1.46-11.77 3-17.69 4.6a21.38 21.38 0 0 1-22.51-7.49 120.63 120.63 0 0 0-21-21 21.39 21.39 0 0 1-7.51-22.52c1.59-5.92 3.14-11.87 4.6-17.7l-26.09-10.79c-3.1 5.17-6.21 10.47-9.26 15.77a21.4 21.4 0 0 1-21.23 10.62 119.66 119.66 0 0 0-29.66 0A21.42 21.42 0 0 1 133.54 39a995.8 995.8 0 0 0-9.26-15.77L98.16 34.08c1.47 5.85 3 11.79 4.6 17.7a21.39 21.39 0 0 1-7.49 22.51 119.94 119.94 0 0 0-21 21 21.43 21.43 0 0 1-22.52 7.51c-5.93-1.6-11.88-3.15-17.7-4.61l-10.79 26.1c5.17 3.09 10.47 6.21 15.77 9.26a21.4 21.4 0 0 1 10.62 21.23 120.15 120.15 0 0 0 0 29.66A21.41 21.41 0 0 1 39 205.65c-5.31 3.06-10.61 6.17-15.77 9.26L34.08 241c5.83-1.46 11.78-3 17.7-4.6a21.41 21.41 0 0 1 22.51 7.5 120.23 120.23 0 0 0 21 21 21.42 21.42 0 0 1 7.51 22.52c-1.6 5.93-3.14 11.88-4.6 17.7l26.12 10.82c3.07-5.12 6.18-10.42 9.26-15.77a21.41 21.41 0 0 1 21.23-10.61 120.64 120.64 0 0 0 29.66 0 21.41 21.41 0 0 1 21.21 10.62c3 5.28 6.15 10.58 9.26 15.77L241 305.12c-1.45-5.8-3-11.75-4.6-17.7a21.41 21.41 0 0 1 7.5-22.51 120.23 120.23 0 0 0 21-21 21.42 21.42 0 0 1 22.52-7.51c5.92 1.6 11.87 3.14 17.71 4.6l10.81-26.12c-5.17-3.1-10.47-6.21-15.77-9.26a21.42 21.42 0 0 1-10.62-21.23 120.15 120.15 0 0 0 0-29.66 21.4 21.4 0 0 1 10.62-21.22c5.31-3.03 10.61-6.14 15.76-9.23z"/><path class="cls-1" d="M305.11 98.16l10.82 26.12c-5.15 3.09-10.45 6.2-15.76 9.26a21.4 21.4 0 0 0-10.62 21.22 120.15 120.15 0 0 1 0 29.66 21.42 21.42 0 0 0 10.62 21.23c5.3 3 10.6 6.16 15.77 9.26L305.12 241c-5.84-1.46-11.79-3-17.71-4.6a21.42 21.42 0 0 0-22.52 7.51 120.23 120.23 0 0 1-21 21 21.41 21.41 0 0 0-7.5 22.51c1.61 5.95 3.15 11.9 4.6 17.7l-26.12 10.82c-3.11-5.19-6.22-10.49-9.26-15.77a21.41 21.41 0 0 0-21.21-10.62 120.64 120.64 0 0 1-29.66 0 21.41 21.41 0 0 0-21.23 10.61c-3.08 5.35-6.19 10.65-9.26 15.77l-26.08-10.82c1.46-5.82 3-11.77 4.6-17.7a21.42 21.42 0 0 0-7.51-22.52 120.23 120.23 0 0 1-21-21 21.41 21.41 0 0 0-22.51-7.5 987.79 987.79 0 0 1-17.7 4.6l-10.79-26.08c5.16-3.09 10.46-6.2 15.77-9.26a21.41 21.41 0 0 0 10.62-21.21 120.15 120.15 0 0 1 0-29.66A21.4 21.4 0 0 0 39 133.55c-5.3-3-10.6-6.17-15.77-9.26l10.85-26.13c5.82 1.46 11.77 3 17.7 4.61a21.43 21.43 0 0 0 22.52-7.51 119.94 119.94 0 0 1 21-21 21.39 21.39 0 0 0 7.49-22.51c-1.59-5.91-3.13-11.85-4.6-17.7l26.12-10.82A995.8 995.8 0 0 1 133.57 39a21.42 21.42 0 0 0 21.22 10.62 119.66 119.66 0 0 1 29.66 0A21.4 21.4 0 0 0 205.65 39c3.05-5.3 6.16-10.6 9.26-15.77L241 34.08c-1.46 5.83-3 11.78-4.6 17.7a21.39 21.39 0 0 0 7.51 22.52 120.63 120.63 0 0 1 21 21 21.38 21.38 0 0 0 22.51 7.49 844.39 844.39 0 0 1 17.69-4.63zm-105.62 143.6a77.57 77.57 0 1 0-29.89 6 78.19 78.19 0 0 0 29.89-6z"/><path d="M241.76 139.71a78.11 78.11 0 1 1-102.05-42.27 78.19 78.19 0 0 1 102.05 42.27zm-51 80.88a55.19 55.19 0 1 0-42.24 0 55.27 55.27 0 0 0 42.2 0z"/><path class="cls-1" d="M220.59 148.48a55.19 55.19 0 1 1-51.06-34.07 55.27 55.27 0 0 1 51.06 34.07z"/></svg>