<svg id="Layer_1" data-name="Layer 1" xmlns="http://www.w3.org/2000/svg" viewBox="0 0 260.15 260.15"><defs><style>.cls-1{fill:#fff;}</style></defs><title>loader__cogwheel--back</title><path class="cls-1" d="M238.38,122v16.13c-3.59.52-7.26,1-10.94,1.51a18.11,18.11,0,0,0-15.16,13.15,84.57,84.57,0,0,1-8,19.32,18.13,18.13,0,0,0,1.42,20c2.25,2.93,4.49,5.88,6.67,8.8L201,212.36c-2.92-2.18-5.87-4.42-8.8-6.67a18.12,18.12,0,0,0-20-1.42,84.83,84.83,0,0,1-19.33,8,18.11,18.11,0,0,0-13.15,15.17c-0.47,3.67-1,7.34-1.5,10.93H122c-0.52-3.59-1-7.26-1.51-10.93a18.12,18.12,0,0,0-13.15-15.17,84.31,84.31,0,0,1-19.32-8,18.13,18.13,0,0,0-20,1.42c-2.92,2.25-5.87,4.49-8.8,6.67L47.79,201c2.17-2.92,4.41-5.87,6.67-8.81a18.11,18.11,0,0,0,1.42-20,84.31,84.31,0,0,1-8-19.32A18.1,18.1,0,0,0,32.7,139.65c-3.68-.48-7.34-1-10.93-1.51V122c3.59-.52,7.25-1,10.93-1.51a18.11,18.11,0,0,0,15.17-13.14,84.61,84.61,0,0,1,8-19.33,18.1,18.1,0,0,0-1.41-20c-2.26-2.94-4.5-5.89-6.67-8.8l11.4-11.41c2.93,2.19,5.88,4.42,8.8,6.67a18.11,18.11,0,0,0,20,1.42,85,85,0,0,1,19.32-8A18.11,18.11,0,0,0,120.5,32.71c0.48-3.68,1-7.34,1.51-10.94h16.13c0.52,3.59,1,7.26,1.5,10.93a18.11,18.11,0,0,0,13.15,15.17,84.83,84.83,0,0,1,19.33,8,18.11,18.11,0,0,0,20-1.42c2.93-2.25,5.88-4.48,8.8-6.67L212.36,59.2c-2.18,2.91-4.41,5.86-6.67,8.8a18.12,18.12,0,0,0-1.42,20,84.83,84.83,0,0,1,8,19.33,18.11,18.11,0,0,0,15.16,13.15C231.12,121,234.79,121.49,238.38,122Zm-61.9,8.07a46.41,46.41,0,1,0-46.41,46.4A46.45,46.45,0,0,0,176.48,130.08Z" transform="translate(0 0)"/><path d="M0,118.9a18.25,18.25,0,0,1,15.45-18c3.95-.6,8-1.17,12.11-1.72A106.46,106.46,0,0,1,35.77,79.4c-2.5-3.27-5-6.55-7.35-9.77A18.26,18.26,0,0,1,30.2,46L46,30.19a18.27,18.27,0,0,1,23.63-1.77c3.23,2.39,6.51,4.86,9.77,7.35a106.46,106.46,0,0,1,19.82-8.21c0.55-4.1,1.12-8.16,1.72-12.11A18.25,18.25,0,0,1,118.9,0h22.35a18.25,18.25,0,0,1,18,15.45c0.6,3.95,1.17,8,1.72,12.11a106.37,106.37,0,0,1,19.81,8.21c3.27-2.49,6.55-5,9.78-7.35a18.26,18.26,0,0,1,23.63,1.78L230,46a18.27,18.27,0,0,1,1.78,23.62c-2.39,3.23-4.86,6.51-7.36,9.78a106.75,106.75,0,0,1,8.21,19.82c4.09,0.55,8.16,1.12,12.11,1.72a18.25,18.25,0,0,1,15.45,18v22.35a18.26,18.26,0,0,1-15.45,18c-3.95.59-8,1.16-12.11,1.71a107.15,107.15,0,0,1-8.21,19.82c2.5,3.27,5,6.55,7.35,9.77A18.26,18.26,0,0,1,230,214.15L214.15,230a18.26,18.26,0,0,1-23.63,1.77c-3.23-2.39-6.51-4.86-9.78-7.35a106.37,106.37,0,0,1-19.81,8.21c-0.55,4.09-1.13,8.16-1.72,12.11a18.25,18.25,0,0,1-18,15.45H118.9a18.26,18.26,0,0,1-18-15.45c-0.59-3.95-1.16-8-1.71-12.11a106.75,106.75,0,0,1-19.82-8.21c-3.26,2.49-6.54,5-9.78,7.35A18.25,18.25,0,0,1,46,230L30.19,214.15a18.26,18.26,0,0,1-1.78-23.62c2.39-3.23,4.86-6.51,7.36-9.78a106.46,106.46,0,0,1-8.21-19.82c-4.1-.55-8.16-1.12-12.12-1.72A18.25,18.25,0,0,1,0,141.25V118.9Zm238.38,19.24V122c-3.59-.52-7.26-1-10.94-1.5a18.11,18.11,0,0,1-15.16-13.15,84.83,84.83,0,0,0-8-19.33,18.12,18.12,0,0,1,1.42-20c2.26-2.94,4.49-5.89,6.67-8.8L201,47.79c-2.92,2.19-5.87,4.42-8.8,6.67a18.11,18.11,0,0,1-20,1.42,84.83,84.83,0,0,0-19.33-8A18.11,18.11,0,0,1,139.64,32.7c-0.48-3.67-1-7.34-1.5-10.93H122c-0.52,3.6-1,7.26-1.51,10.94a18.11,18.11,0,0,1-13.15,15.16,85,85,0,0,0-19.32,8,18.11,18.11,0,0,1-20-1.42c-2.92-2.25-5.87-4.48-8.8-6.67L47.79,59.2C50,62.11,52.2,65.06,54.46,68a18.1,18.1,0,0,1,1.41,20,84.61,84.61,0,0,0-8,19.33A18.11,18.11,0,0,1,32.7,120.5c-3.68.48-7.34,1-10.93,1.51v16.13c3.59,0.52,7.25,1,10.93,1.51A18.1,18.1,0,0,1,47.87,152.8a84.31,84.31,0,0,0,8,19.32,18.11,18.11,0,0,1-1.42,20C52.2,195.09,50,198,47.79,201l11.4,11.4c2.93-2.18,5.88-4.42,8.8-6.67a18.13,18.13,0,0,1,20-1.42,84.31,84.31,0,0,0,19.32,8,18.12,18.12,0,0,1,13.15,15.17c0.48,3.67,1,7.34,1.51,10.93h16.13c0.52-3.59,1-7.26,1.5-10.93a18.11,18.11,0,0,1,13.15-15.17,84.83,84.83,0,0,0,19.33-8,18.12,18.12,0,0,1,20,1.42c2.93,2.25,5.88,4.49,8.8,6.67L212.36,201c-2.18-2.92-4.42-5.87-6.67-8.8a18.13,18.13,0,0,1-1.42-20,84.57,84.57,0,0,0,8-19.32,18.11,18.11,0,0,1,15.16-13.15C231.12,139.17,234.79,138.66,238.38,138.14Z" transform="translate(0 0)"/><path d="M130.07,83.68a46.4,46.4,0,1,1-46.4,46.4A46.45,46.45,0,0,1,130.07,83.68Zm25.78,46.39a25.78,25.78,0,1,0-25.78,25.78A25.8,25.8,0,0,0,155.85,130.07Z" transform="translate(0 0)"/><path class="cls-1" d="M130.07,104.3a25.78,25.78,0,1,1-25.77,25.77A25.8,25.8,0,0,1,130.07,104.3Z" transform="translate(0 0)"/></svg>